# xmcd
#
# Track frame offsets:
#	150
#	13617
#	27846
#	44129
#	58479
#	71660
#	92035
#	104072
#	115744
#	127268
#	142911
#	157308
#	169934
#	186357
#	199556
#	213159
#	223286
#	237302
#	250138
#	261206
# Disc length: 3718 seconds
# Revision: 1
# Processed by: cddbd v1.5.1PL2 Copyright (c) Steve Scherf et al.
#
# Submitted via: libkcddb 0.21
#
DISCID=3f0e8414
DTITLE=Banda El Recodo - 20 Kilates Musicales
DYEAR=2005
DGENRE=Ballad
TTITLE0=Banda El Recodo - Para sentir bonito
TTITLE1=Banda El Recodo - Acabame de matar
TTITLE2=Banda El Recodo - Si quieres
TTITLE3=Banda El Recodo - No se la van a acabar
TTITLE4=Banda El Recodo - El chilango quebrador
TTITLE5=Banda El Recodo - Desde el cielo
TTITLE6=Banda El Recodo - La Josefina
TTITLE7=Banda El Recodo - No vale la pena
TTITLE8=Banda El Recodo - Mi fracaso
TTITLE9=Banda El Recodo - Costumbres
TTITLE10=Banda El Recodo - Caray
TTITLE11=Banda El Recodo - No me vuelvo a enamorar
TTITLE12=Banda El Recodo - Que solo estoy sin ti
TTITLE13=Banda El Recodo - Los reyes del contrabando
TTITLE14=Banda El Recodo - El molino
TTITLE15=Banda El Recodo - Una pura y dos con sal
TTITLE16=Banda El Recodo - como el primer día
TTITLE17=Banda El Recodo - Pena tras pena
TTITLE18=Banda El Recodo - Tengo una ilusión
TTITLE19=Banda El Recodo - Lo mejor de mi vida
EXTD=Spanish - Mexican Band
EXTT0=
EXTT1=
EXTT2=
EXTT3=
EXTT4=
EXTT5=
EXTT6=
EXTT7=
EXTT8=
EXTT9=
EXTT10=
EXTT11=
EXTT12=
EXTT13=
EXTT14=
EXTT15=
EXTT16=
EXTT17=
EXTT18=
EXTT19=
PLAYORDER=
